# xmcd
#
# Track frame offsets:
#	150
#	17095
#	37502
#	58507
#	77385
#	95322
#	119332
#	137790
#	153677
#	174247
#	194270
#	217347
#	234375
#	249650
#	272890
#	286252
#
# Disc length: 3974 seconds
#
# Revision: 8
# Processed by: cddbd v1.5.2PL0 Copyright (c) Steve Scherf et al.
# Submitted via: audiograbber 1.83.01
#
DISCID=d70f8410
DTITLE=Men In Black - Men In Black Soundtrack (Koregiert!)
DYEAR=1997
DGENRE=Soundtrack
TTITLE0=Will Smith - Men in Black
TTITLE1=Snoop Doggy Dogg - We Just Wanna Party With You
TTITLE2=Ginuwine - I'm Feelin' You
TTITLE3=Alicia Keys - Dah Dee Dah (Sexy Thing)
TTITLE4=Will Smith - Just Crusin'
TTITLE5=The Roots and D'Angelo - The 'Notic
TTITLE6=Trey Lorenz - Make You Happy
TTITLE7=Nas - Escobar '97
TTITLE8=Emoja - Erotik City
TTITLE9=Tribe Called Quest - Same Ol Thing
TTITLE10=Destiny's Child - Killing Time
TTITLE11=3T - Waiting for Love
TTITLE12=De La Soul - Chanel No. Fever
TTITLE13=Buckshot LeFonque - Same Cow Fonque (More Tea, Vicar?)
TTITLE14=Danny Elfman - M.I.B Theme
TTITLE15=Danny Elfman - M.I.B Closing Theme
EXTD=
EXTT0=
EXTT1=
EXTT2=
EXTT3=
EXTT4=
EXTT5=
EXTT6=
EXTT7=
EXTT8=
EXTT9=
EXTT10=
EXTT11=
EXTT12=
EXTT13=
EXTT14=
EXTT15=
PLAYORDER=
